<?xml version="1.0" encoding="utf-8"?>
<!-- Generator: Adobe Illustrator 25.1.0, SVG Export Plug-In . SVG Version: 6.00 Build 0)  -->
<svg version="1.1" id="Layer_1" xmlns="http://www.w3.org/2000/svg" xmlns:xlink="http://www.w3.org/1999/xlink" x="0px" y="0px"
	 viewBox="0 0 719 718" style="enable-background:new 0 0 719 718;" xml:space="preserve">
<style type="text/css">
	.st0{fill:#D84D42;}
	.st1{fill:#C5423F;}
	.st2{fill:#3BB5A9;}
	.st3{clip-path:url(#SVGID_2_);}
	.st4{fill:#FACB55;}
	.st5{fill:#F196A2;}
	.st6{fill:#FEFEFE;}
</style>
<g>
	<path class="st0" d="M322.7,422.1c11.8,22.1,14.6,54.2,19.3,79.7c27,122.1-66,165.2-162.1,190.5c-4.6,1.2-9.3,2.2-13.6,4.8
		c-1.6,1-46.8,13.4-46.8,13.4"/>
	<path class="st1" d="M119.5,710.5c-0.2-2.1,10.7-3.7,11.8-4c4.8-1.1,9.7-2.3,14.4-3.8c4.7-1.4,9.5-2.4,14.2-4
		c1.9-0.7,4.2-0.4,5.8-1.4c4.2-2.6,9-3.4,13.6-4.8c149.6-45.3,206.8-106,137.9-264.9c-22.4,25.2,22.7-38.8,27.6-43.5
		c4-6.1-6.3-21.8,1.4,4.3c7.9,26.7,15.4,62.3,19.9,88.8c8.9,59.8,22.2,126.1,5.8,184.9c-22.3,19.2-56.6,24-84.6,27.8
		c-12.8,1.3-25.6,2.5-38.3,4.5h-0.2"/>
	<path class="st2" d="M417.7,274.8"/>
	<path class="st2" d="M467.5,202.2c61.2,50.6,126.3,97.6,184,152.1c-86.9-8.7-179.5,5.8-265.9,25.3c-6.1,3.4,3.5-13.8,0.6-21.1
		c0.5-10.3-8.7-17-12.9-24.7c6.8-3.5,10.1-16.1,16.4-22.2"/>
	<path class="st0" d="M416.7,409.2c10.9-7.5,26.3-14.5,38.6-18.8c169.1-58.4,211,81,242.8,220.6"/>
	<path class="st1" d="M698.6,609.6c0.5,10.8-11.8-36-10.5-31.8c-43.3-136.1-66.6-243.7-251.9-175.4c-15.2,5.6-12.5,14.8-30.6-1
		c-8.9-7.8-35.7-21-25-23.8c82.1-21.6,191.2-42.1,268.6-25.9c34.4,32.2,36.9,96.5,40.6,141.9"/>
	<g>
		<defs>
			<path id="SVGID_1_" d="M-85-27.9h738.7c0.5,0,1,0.4,1,1l76.7,751.3H-8.3L-85-27.9z"/>
		</defs>
		<clipPath id="SVGID_2_">
			<use xlink:href="#SVGID_1_"  style="overflow:visible;"/>
		</clipPath>
		<g class="st3">
			<path class="st4" d="M372.8,664.2c-6.4,6.4-0.5-15-1.1-18c2.3-28.9,2.5-58,0.5-87c-2.9-56-14.4-116.3-26-170.6
				c-2.1-9.7,18.1,8.2,20.9,5c7.2-2.4,14.1-5,18.6-11.4c0.7-1.5,3.2-7,4.3-3.3c31,25.7,70.5,57.9,103.1,82.9
				c4.9,5.9,26,16.2,23.8,21.2"/>
			<path class="st2" d="M250.6,525.7C189.5,474.9,123,424.9,65.5,370.3c86.9,9,181-7.4,267.6-26.6c6.2-3.4-5.1,15.9-2.2,23.2
				c-0.5,10.3,10.3,18.1,14.5,25.7"/>
			<path class="st5" d="M201.9,245c3.1-3.8,7.4-12.1,11.5-17c12.6-15.2,25.1-30.9,37-47c34.8-41.2,64.2-89.1,101.8-126.9
				c-9,92.8,1.2,191.2,25.7,280.3c-16.8-9.1-36.5-6.7-47.1,8.8c1.5-6.4,4.5-3.8-5.9-11.1C258.2,282.7,268.7,295.3,201.9,245"/>
			<path class="st5" d="M478.9,200.3c-0.2,0-0.3,0-0.3-0.2c0.1-0.1,0.3,0,0.3,0.1C478.9,200.2,478.9,200.3,478.9,200.3z"/>
			<path class="st4" d="M369.8,666.7c-0.1-0.2-0.2-0.4,0.1-0.5C369.9,666.4,369.9,666.6,369.8,666.7z"/>
			<path class="st0" d="M250.6,278"/>
			<path class="st0" d="M113.6,178.9"/>
			<path class="st0" d="M296.9,312c-10.9,7.4-26.3,14.4-38.7,18.7C89,388.5,47.5,249,16.1,109.2"/>
			<path class="st1" d="M15.7,110.8c-0.4-10.9,11.6,36.1,10.4,31.8C69,278.8,92,386.5,277.5,318.8c15.2-5.5,12.6-14.8,30.6,1.1
				c8.9,7.8,35.7,21.1,24.9,23.9c-82.2,21.3-210.7,80.3-268.7,25C30.1,336.1,33,273.5,27.2,226.6"/>
			<path class="st1" d="M602.7,5.9c0.2,2.1-10.7,3.7-11.8,4c-4.8,1.1-9.7,2.3-14.4,3.8s-9.5,2.4-14.2,4c-1.9,0.7-4.2,0.4-5.8,1.4
				c-4.2,2.6-9,3.4-13.6,4.8C393.3,69.3,336.2,129.9,405.2,288.8c22.4-25.3-22.6,38.8-27.6,43.5c-4,6.1,6.4,21.8-1.4-4.3
				c-7.9-26.7-15.5-62.3-19.9-88.8c-9-59.9-22.4-126.2-5.9-184.9C372.7,35.1,407,30.2,435,26.4c12.8-1.3,25.6-2.6,38.3-4.6h0.3"/>
			<path class="st1" d="M530.1,14.9c8.9-1.5,17.8-2.1,26.7-3.5c6-0.9,12.2-1.1,18.3-1.9c4.7-0.7,9.4-1.8,14.3-1.5
				c0.2,0,0.4,0,0.6-0.2"/>
			<path class="st6" d="M389.8,377.1c-9.9,15-28.3,21.6-45.3,13.9c-0.2-0.8-0.9-1.2-1.7-1.1l0,0c-21.9-12.3-20.6-49.8,2.8-59.9
				C374.2,315.4,403.8,348.6,389.8,377.1z M349.7,360.8c-0.2,14,20.9,13.5,21.2-0.3C370.5,347.4,349.1,346.7,349.7,360.8
				L349.7,360.8z"/>
			<path class="st0" d="M425.4,265.9l-0.1-0.1L425.4,265.9"/>
			<path class="st0" d="M405.9,292.7c-11.8-22-20.8-52.6-25.6-78.2c-27.1-122.1,65.9-165.3,162-190.7c4.6-1.2,9.3-2.2,13.6-4.8
				c1.6-1,46.8-13.4,46.8-13.4"/>
			<path class="st1" d="M559.4,378.7"/>
			<path class="st1" d="M652.6,454.6"/>
			<path class="st1" d="M664.1,480.4"/>
			<path class="st1" d="M679.5,519.5"/>
			<path class="st1" d="M425.9,263.8"/>
			<path class="st0" d="M592,7.5L591.3,8L592,7.5z"/>
			<path class="st5" d="M349.7,360.8c-0.5-14.1,20.9-13.4,21.2-0.3C370.6,374.3,349.5,374.9,349.7,360.8z"/>
			<path class="st4" d="M344.6,391c-0.7,0.1-1.4-0.3-1.7-1.1C343.6,389.8,344.4,390.3,344.6,391z"/>
			<path class="st4" d="M342.3,389.4l-1-0.5C341.7,388.9,342.1,389.1,342.3,389.4z"/>
			<path class="st4" d="M342.9,390l-0.5-0.5L342.9,390z"/>
			<path class="st5" d="M232,545.3l0.1,0.1C232.1,545.4,232,545.2,232,545.3z"/>
		</g>
	</g>
</g>
</svg>
