<svg id="Layer_1" data-name="Layer 1" xmlns="http://www.w3.org/2000/svg" xmlns:xlink="http://www.w3.org/1999/xlink" viewBox="0 0 814.35 277.87"><defs><style>.cls-1{fill:none;}.cls-2{clip-path:url(#clip-path);}.cls-3,.cls-5{fill:#fff;}.cls-3{fill-opacity:0;fill-rule:evenodd;}.cls-4{clip-path:url(#clip-path-2);}.cls-6{fill:#d94d43;}.cls-7{fill:#3bb5a9;}.cls-8{fill:#f195a3;}.cls-9{fill:#fbcc56;}.cls-10{fill:#c5423e;}.cls-11{fill:#c6423e;}.cls-12{fill:#e9e5c0;}.cls-13{fill:#f7ba8b;}</style><clipPath id="clip-path" transform="translate(-91.15 -214.23)"><rect class="cls-1" width="960" height="720"/></clipPath><clipPath id="clip-path-2" transform="translate(-91.15 -214.23)"><rect class="cls-1" x="-125.01" y="122.2" width="1196.49" height="475.6"/></clipPath></defs><g class="cls-2"><path class="cls-3" d="M611,278.15a18.51,18.51,0,0,0,.9-12.56A18.51,18.51,0,0,1,611,278.15Z" transform="translate(-91.15 -214.23)"/><path class="cls-3" d="M573,249.62c-4.82,0-9.64,0-14.46,0a4,4,0,0,0-1.07.11,4.45,4.45,0,0,1,1.07-.11C563.32,249.67,568.14,249.63,573,249.62Z" transform="translate(-91.15 -214.23)"/><path class="cls-3" d="M556.47,251a6,6,0,0,0,0,.77c0,2.33,0,4.66,0,7,0-2.33,0-4.66,0-7A5.88,5.88,0,0,1,556.47,251Z" transform="translate(-91.15 -214.23)"/><path class="cls-3" d="M558,291.9a1.81,1.81,0,0,1-1-.39A1.81,1.81,0,0,0,558,291.9Z" transform="translate(-91.15 -214.23)"/><path class="cls-3" d="M589,250a33.45,33.45,0,0,1,13.31,4.1A33.29,33.29,0,0,0,589,250Z" transform="translate(-91.15 -214.23)"/><path class="cls-3" d="M580.23,291.86l5.4,0a36.76,36.76,0,0,0,11.64-2.08,36.76,36.76,0,0,1-11.64,2.08Z" transform="translate(-91.15 -214.23)"/><path class="cls-3" d="M556.48,279.69c0,.84,0,1.68,0,2.52C556.47,281.37,556.48,280.53,556.48,279.69Z" transform="translate(-91.15 -214.23)"/><path class="cls-3" d="M611,278.15a18.26,18.26,0,0,0-6.33-22.57c-.77-.55-1.56-1-2.37-1.51A33.45,33.45,0,0,0,589,250c-1.15-.12-2.31-.21-3.48-.24-4.18-.11-8.36-.12-12.55-.11-4.82,0-9.64,0-14.46,0a4.45,4.45,0,0,0-1.07.11,1.32,1.32,0,0,0-1,1.32,5.88,5.88,0,0,0,0,.77c0,2.32,0,4.65,0,7,0,4,0,7.93,0,11.9,0,3,0,6,0,9,0,.84,0,1.68,0,2.52,0,2.45,0,4.91,0,7.36,0,.94.09,1.57.51,1.94a1.81,1.81,0,0,0,1,.39,6.32,6.32,0,0,0,.64,0c7.21-.09,14.42,0,21.62-.06l5.4,0a36.76,36.76,0,0,0,11.64-2.08q1.72-.6,3.39-1.35A20.09,20.09,0,0,0,611,278.15Z" transform="translate(-91.15 -214.23)"/><g class="cls-4"><path class="cls-5" d="M642,389c-10.95-23.71-21.83-47.44-32.82-71.12-.87-1.86-.62-2.35,1.24-3.1,11.54-4.63,20.84-11.83,26.2-23.44,3.5-7.58,4.4-15.59,4-23.78-.69-15.06-7-27.1-19.72-35.46a64.63,64.63,0,0,0-34.53-10.51c-19.36-.42-38.73-.09-58.1-.08-.59.6-.32,1.36-.32,2.05q0,82.35-.06,164.7c0,2,.71,2.32,2.46,2.31,7.73-.08,15.46,0,23.19,0,3.42,0,3.08.45,3.08-3q0-32.38,0-64.78c0-1.94.45-2.6,2.48-2.54,4.61.15,9.24,0,13.86.07,2.13,0,4.28-.33,6.39.25.2.34.43.67.6,1q8.6,18.78,17.19,37.56,6.75,14.76,13.46,29.55c.49,1.08.86,2.1,2.48,2.08,9.32-.08,18.65-.06,28,0C642.61,390.71,642.59,390.21,642,389ZM600.66,288.39a37.47,37.47,0,0,1-15,3.43c-9,.11-18,0-27,.1-1.9,0-2.2-.67-2.18-2.35.09-6.29,0-12.59,0-18.88s0-12.59,0-18.88c0-1.6.31-2.21,2.07-2.2,9,.1,18-.11,27,.12,6.87.17,13.52,1.83,19.16,5.85C616.85,264.24,614.62,282.1,600.66,288.39Z" transform="translate(-91.15 -214.23)"/><path class="cls-5" d="M105.36,343.8c4.14,0,8.29,0,12.43,0,1,0,1.71,0,1.85,1.46,1.18,11.61,9.53,17.8,20.46,19.21,7.63,1,14.84-.52,20.88-5.51,10.48-8.67,9.93-24.63-.75-33.09C154.05,321,147,320,139.46,319.33c-16.19-1.42-30.3-7.38-40.12-21-6.92-9.63-8.9-20.62-8-32.24,1.91-24,19.32-41.89,42.82-46,14.57-2.54,28.26-.09,40.7,8,11.17,7.26,17.92,17.65,20.37,30.78a56.58,56.58,0,0,1,.9,7.34c.07,1.23-.31,1.67-1.59,1.66q-12.44-.06-24.87,0c-1.05,0-1.62-.23-1.67-1.42-.41-9.81-8.17-17.57-19.62-18.61-7.37-.67-14.5-.09-20.65,4.73-7,5.5-9,13-8,21.35s6.24,13.7,14.06,16.54a29.92,29.92,0,0,0,9.81,1.85c10.8.16,21,2.48,30.33,8.11a44.44,44.44,0,0,1,21,29c3.41,14.65,2.08,28.66-6.26,41.5-7.18,11.06-17.7,17.59-30.34,20.43-17.34,3.9-33.82,1.49-48.5-9-12.59-9-18-21.89-18.7-37-.08-1.48.69-1.49,1.75-1.49C97.06,343.82,101.21,343.8,105.36,343.8Z" transform="translate(-91.15 -214.23)"/><path class="cls-5" d="M753,390.36a73.21,73.21,0,0,1-4.87-9.23q-16.74-34.22-33.39-68.49c-4.15-8.52-8.25-17.06-12.38-25.59a2.26,2.26,0,0,0-1.1-1.16V387.58c0,3.11,0,3.11-3.1,3.11-7.57,0-15.15,0-22.72,0-1.79,0-2.48-.35-2.48-2.35q.07-82.38,0-164.78c0-1.63.4-2.18,2.11-2.17q12.43.13,24.88,0a2.55,2.55,0,0,1,2.63,1.8q13.85,28.47,27.75,56.9,15.78,32.31,31.54,64.62c.31.64.52,1.32.78,2a18.87,18.87,0,0,0,1.81,4.64c1.13,1.85,1.82,1.86,3.07,0,.82-1.19,1.1-2.67,2-3.81.7-.9,1.25-2.55,2.54-2.09s.75,2.08.71,3.23a30.7,30.7,0,0,0,.68,9.46,2.36,2.36,0,0,1,.15,1.17c-.82,3.63,0,7.29-.23,10.94a29,29,0,0,0,.16,6,2.35,2.35,0,0,1-.16,1.64c-1.49,2.17-.78,4.44-.33,6.68.61,3.08,0,4.08-3.18,4.49C764.29,389.8,758.64,390,753,390.36Z" transform="translate(-91.15 -214.23)"/><path class="cls-5" d="M753,390.36c3.18-1.64,6.72-.79,10.07-1.37,2.3-.4,4.73-.27,7.09-.56s3-1.39,2.34-3.73-1.9-4.59.28-6.75a1.08,1.08,0,0,0,.29-.87c-.9-3.12.08-6.36-.59-9.47-.24-1.12.78-1.9.55-2.69-.6-2.05.06-4.23-.21-6a59,59,0,0,1-.64-11.17,2.74,2.74,0,0,0-.31-2.14,12.93,12.93,0,0,0-3,4.76c-.44,1.4-1.09,2.93-2.7,3s-2.23-1.62-2.83-2.9a6.5,6.5,0,0,1-.65-3.71l3.09,5.53a17.65,17.65,0,0,0,2.31-4.29q18.31-39.15,36.6-78.34c7.18-15.36,14.39-30.71,21.5-46.09a3.17,3.17,0,0,1,3.43-2.12q12.07.15,24.16,0c1.85,0,2.21.54,2.21,2.28q-.06,82.38,0,164.77c0,1.82-.52,2.27-2.28,2.25-7.82-.09-15.63-.13-23.44,0-2.2,0-2.59-.66-2.59-2.69q.11-48.78.05-97.56V288l-.37-.06q-6.92,14.76-13.84,29.52-16.59,35.49-33.13,71c-.78,1.66-1.62,2.34-3.55,2.3-7.09-.13-14.19,0-21.28-.06C754.71,390.68,753.8,391,753,390.36Z" transform="translate(-91.15 -214.23)"/><path class="cls-5" d="M277.46,319.13c0,22.95,0,45.91.05,68.86,0,2.25-.66,2.78-2.81,2.74-7.49-.13-15-.18-22.48,0-2.58.07-2.92-.81-2.92-3.09q.1-68.39,0-136.77c0-3.78.52-3.26-3.29-3.27-9.89,0-19.77,0-29.66,0-1.95,0-2.61-.49-2.57-2.52.11-7.18.08-14.35,0-21.52,0-1.54.39-2.08,2-2.07q47.58.06,95.18,0c1.71,0,1.92.69,1.91,2.13-.06,7.25-.09,14.5,0,21.75,0,1.89-.66,2.23-2.35,2.22-10-.06-19.93,0-29.89,0-3.75,0-3.23-.5-3.23,3.35Q277.44,285.06,277.46,319.13Z" transform="translate(-91.15 -214.23)"/><path class="cls-5" d="M475.34,410.41q-188.23,0-376.49.07c-2.4,0-2.89-.68-2.77-2.88.09-1.55.58-2,2-1.78a13.44,13.44,0,0,0,1.68,0h752.5c2.9,0,3.67,1.06,3,3.86-.16.66-.49.72-1,.72H475.34Z" transform="translate(-91.15 -214.23)"/><path class="cls-6" d="M368.59,395.67c-5.78,1.12-11.64,1.45-17.48,2-1.55.16-1-.73-.54-1.44,2-2.86,4-5.72,6.09-8.55q13.54-18.78,27.11-37.53c.55-.77,1-1.61,1.52-2.41,1.52-3.34,4-6.06,6.06-9q4.66-6.57,9.46-13.08c.64-.87,1.14-1.94,2.46-2,1,.31,1.41,1.2,1.82,2.07a65.76,65.76,0,0,1,6.56,32c-.47,8.5-4.34,15.14-10.95,20.36-7,5.57-15.12,9.1-23.46,12.12-5.69,2.06-11.48,3.84-17.3,5.5a35.49,35.49,0,0,0-3.56.7,89.25,89.25,0,0,1,9.8-1.4A2.42,2.42,0,0,1,368.59,395.67Z" transform="translate(-91.15 -214.23)"/><path class="cls-6" d="M324.37,246.92a35.68,35.68,0,0,1-.83-7.47c16.95,12.2,33.55,24.15,50.16,36.09a6.09,6.09,0,0,1,2.75,1.3c6.55,4.89,13.2,9.65,19.8,14.47.73.53,1.76.93,1.43,2.19a6,6,0,0,1-3.1,2.13A70.5,70.5,0,0,1,368,301.92c-12.32.34-21.56-5.07-27.88-15.65C334,276,330,265,326.79,253.6c-.64-2.23-1.41-4.42-1.83-6.69C324.64,245.17,324.58,247.63,324.37,246.92Z" transform="translate(-91.15 -214.23)"/><path class="cls-6" d="M507.25,365.28c.62,2.15.59,4.37.89,7.28L458.22,336.5a7.47,7.47,0,0,1-3.15-1.59c-6.52-4.66-12.94-9.46-19.48-14.08-.85-.6-2-1.11-1.65-2.57,1.94-1.92,4.52-2.62,6.93-3.56a64.36,64.36,0,0,1,27.6-4.38c8.53.54,15,4.7,20.15,11.31,4.88,6.3,8.17,13.45,11,20.83a155.83,155.83,0,0,1,6.77,21.87C506.43,364.6,505.93,366,507.25,365.28Z" transform="translate(-91.15 -214.23)"/><path class="cls-6" d="M476.47,214.73a11.83,11.83,0,0,1,5.52-.35c-3.21,4.48-6.19,8.67-9.2,12.84q-13,18-26,36a8.44,8.44,0,0,0-.45.84c-1.95,3.17-4.29,6.06-6.44,9.08q-4.61,6.5-9.3,12.93c-.64.87-1.06,2.27-2.66,1.93a5.44,5.44,0,0,1-1.85-2.72c-4.39-9.82-6.73-20.06-6.11-30.86a26.45,26.45,0,0,1,10-19.82c7.6-6.2,16.43-10,25.53-13.25a170.81,170.81,0,0,1,20.82-6.14c.31-.07-.09,0,.18-.12S476.67,214.84,476.47,214.73Z" transform="translate(-91.15 -214.23)"/><path class="cls-7" d="M428.31,288.1c4.83-6.66,9.63-13.33,14.5-20,1.06-1.44,1.85-3.15,3.52-4.08q23.13,17.83,45.77,36.29a13,13,0,0,1,3.63,3.71c-1.39,1.05-2.9.33-4.34.23-3.73-.26-7.43-.8-11.17-.78-16.38.1-32.5,2.35-48.49,5.71-2.48.52-4.9,1.39-7.47,1.43-.79-.27-.81-1-.68-1.56a10.48,10.48,0,0,0-2.81-9.77,1.46,1.46,0,0,1,0-1.16C423.08,294.65,425.14,291,428.31,288.1Z" transform="translate(-91.15 -214.23)"/><path class="cls-8" d="M397.68,293.18l-22.3-16.34c-.57-.41-1.12-.86-1.68-1.3,5.85-7.42,11.68-14.87,17.57-22.26q9.36-11.76,18.82-23.43a17.51,17.51,0,0,1,3.79-3.6c.94,1.69.22,3.43.09,5.12a173.09,173.09,0,0,0,0,25.46,255.16,255.16,0,0,0,5.92,37.67,5.75,5.75,0,0,1,.16,3.05,1.32,1.32,0,0,1-1.8.69c-3.48-1-6.37,0-8.91,2.42a2.08,2.08,0,0,1-.85.4c-2.26-.3-3.62-2.11-5.39-3.22a32.59,32.59,0,0,1-4.69-3.57A2.8,2.8,0,0,1,397.68,293.18Z" transform="translate(-91.15 -214.23)"/><path class="cls-7" d="M403,323.85q-8,11-16,21.95c-.51.7-1.12,1.32-1.69,2-14-10.61-27.67-21.64-41.37-32.63-2.78-2.23-5.76-4.23-7.92-7.15a3.44,3.44,0,0,1,2.95-.57,109.71,109.71,0,0,0,24,.41c1.5-.15,3,.08,4.53,0,4.38-.67,8.82-1,13.2-1.65,1.17-.27,2.4-.06,3.55-.48,5.83-.84,11.58-2.08,17.32-3.35a16.39,16.39,0,0,0,2.2-.41c.83-.19,1.67-.41,2.52-.55a1.88,1.88,0,0,1,1.41.37c.34,1.43-.4,2.74-.42,4.15,0,2.39.39,4.51,2.17,6.22a3,3,0,0,1,.86,1.39,3.13,3.13,0,0,1-1,2.36C407.21,318.5,405.73,321.68,403,323.85Z" transform="translate(-91.15 -214.23)"/><path class="cls-9" d="M433.87,318.65c5,4.15,10.51,7.66,15.72,11.56,2.86,2.13,5.76,4.2,8.63,6.3-1.9.8-2.63,2.71-3.8,4.16q-11.69,14.64-23.23,29.38c-3.43,4.38-6.84,8.77-10.58,12.9-.85.93-1.82,1.75-2.74,2.63-1-.74-.57-1.75-.45-2.65a99.74,99.74,0,0,0,.88-14.73,205.17,205.17,0,0,0-1.45-21.85,283,283,0,0,0-5.11-28.62,4.82,4.82,0,0,1-.15-2.58,1.12,1.12,0,0,1,1.35-.71c4.13.86,7.38-.7,10.15-3.64,3.22,1.24,5.49,3.89,8.36,5.68A5.09,5.09,0,0,1,433.87,318.65Z" transform="translate(-91.15 -214.23)"/><path class="cls-10" d="M411.94,314.76c1.34,6.77,2.82,13.52,4,20.32a221.78,221.78,0,0,1,2.88,27,162,162,0,0,1-.93,23.52,24.17,24.17,0,0,1-13.66,6.11c-10.07,1.24-20.14,2.38-30.22,3.51a23.33,23.33,0,0,1-5.41.47c-4.58-.22-9.06.94-13.65,1.25.14-.91.8-.75,1.3-.89,12.16-3.41,24.33-6.86,35.53-12.88,6.46-3.48,12.43-7.66,16.18-14.31A25.77,25.77,0,0,0,411,357.49c.7-11.28-2-21.86-6.67-32a3.66,3.66,0,0,0-1.34-1.61l7.12-10.13C411.17,313.28,411.64,313.86,411.94,314.76Z" transform="translate(-91.15 -214.23)"/><path class="cls-10" d="M433.87,318.65A87.37,87.37,0,0,1,423.33,311c-.09-.44.13-.66.53-.75A261.81,261.81,0,0,1,472.63,303a128.38,128.38,0,0,1,23.1,1.07A24.44,24.44,0,0,1,502,318c1,8.12,2,16.25,2.75,24.39.32,3.42.31,6.87,1,10.25.36,2.68.56,5.38.94,8,.12,1.56-.16,3.15.56,4.63-.06.55-.12,1.1-.21,2a15.87,15.87,0,0,1-1.71-4.88c-3.16-11.51-6.79-22.85-12.59-33.36-3.17-5.75-7.17-10.83-12.77-14.53A23,23,0,0,0,468.72,311a62.81,62.81,0,0,0-31,5.72C436.39,317.32,435.14,318,433.87,318.65Z" transform="translate(-91.15 -214.23)"/><path class="cls-10" d="M419.72,298c-1.05-5.37-2.14-10.73-3.14-16.1a203.06,203.06,0,0,1-3.76-34.26,126.88,126.88,0,0,1,1.06-21.34c5-4.53,11.14-5.85,17.53-6.56q14.07-1.58,28.16-3.05c5-.52,9.92-.94,14.87-1.44a15.72,15.72,0,0,0,2-.47l.94.12.11.35c-3.84,1.14-7.68,2.26-11.52,3.41-10.53,3.13-20.89,6.75-30.27,12.58-5.44,3.38-10.18,7.55-13,13.59a24.43,24.43,0,0,0-2.07,8.74,62.63,62.63,0,0,0,7.62,34.58l-7.44,10.75C420.16,299,419.82,298.61,419.72,298Z" transform="translate(-91.15 -214.23)"/><path class="cls-5" d="M852.22,485.39v-2.28q0-30.14,0-60.26c0-.78-.56-2,.54-2.28a9,9,0,0,1,3.55,0c.65.11.39.94.39,1.46q0,34.08,0,68.15c0,1.41-.49,1.68-1.79,1.74-2.19.11-3.76-.25-5.17-2.32-13.69-20.12-27.52-40.16-41.3-60.22-.71-1-1.37-2.11-2.15-3.31-.7.84-.41,1.72-.41,2.5q0,30.26,0,60.5c0,2.89-.58,3.33-3.48,2.82-.69-.12-1-.34-1-1,0-.39,0-.79,0-1.19,0-22.32,0-44.64-.05-67,0-1.93.57-2.24,2.36-2.35,2.45-.14,3.85.76,5.19,2.74q17.84,26.25,35.85,52.38c2.3,3.34,4.63,6.66,6.94,10Z" transform="translate(-91.15 -214.23)"/><path class="cls-5" d="M149.12,484.63c-.1-3.82-.21-7.65-.39-11.46-.41-9.3-4.2-13.92-13.3-16.14,1-.3,1.81-.52,2.62-.79,8.2-2.71,12.44-9.78,11.89-19.77-.41-7.5-5.45-13.23-13.2-14.92a40,40,0,0,0-8.5-1.09c-9.57,0-19.13,0-28.7,0-1.69,0-2.09.46-2.08,2.11q.09,33.6,0,67.18c0,1.83.51,2.3,2.27,2.24,1.57-.05,2.35-.11,2.32-2.12-.14-9.56-.06-19.13-.08-28.69,0-1.1-.11-1.94,1.52-1.93,8.69.09,17.38-.12,26.07.11s14.45,4.62,14.57,14.54c0,4.22.26,8.44.42,12.66.19,4.94,1.66,6.13,6.15,5A16.81,16.81,0,0,1,149.12,484.63ZM129,455.14c-8.44.09-16.89,0-25.33.08-1.4,0-1.71-.44-1.68-1.76.07-4.54,0-9.08,0-13.61s0-8.92,0-13.38c0-1.39.21-1.91,1.78-1.89,8.52.09,17,0,25.56.08a20.33,20.33,0,0,1,8.56,1.88c5.68,2.7,8.43,8.23,7.63,15.29a14.63,14.63,0,0,1-11.09,12.55A24.34,24.34,0,0,1,129,455.14Z" transform="translate(-91.15 -214.23)"/><path class="cls-5" d="M243.67,456.13c0-11.16.05-22.32,0-33.48,0-1.76.39-2.25,2.21-2.24,14.59.08,29.18.06,43.77,0,1.46,0,2.32,0,2.27,1.95-.05,1.73-.39,2.3-2.24,2.29-13.08-.09-26.16,0-39.23-.09-1.78,0-2.25.41-2.23,2.21.11,7.89.1,15.79,0,23.68,0,1.64.36,2.12,2.06,2.11,12.2-.08,24.4,0,36.6-.08,1.64,0,2.34.2,2.33,2.13s-.67,2.16-2.34,2.15c-12.12-.07-24.24,0-36.36-.09-1.94,0-2.31.57-2.29,2.37.09,8.77.14,17.54,0,26.31,0,2.25.71,2.53,2.67,2.52,13.08-.09,26.16,0,39.23-.07,1.41,0,2.34-.05,2.33,1.92s-.63,2.2-2.34,2.19c-14.67-.06-29.34-.08-44,0-2.08,0-2.43-.68-2.41-2.57C243.72,478.3,243.67,467.21,243.67,456.13Z" transform="translate(-91.15 -214.23)"/><path class="cls-5" d="M662.3,456.16c0-11.16,0-22.32,0-33.48,0-1.72.31-2.28,2.18-2.27q21.88.13,43.77,0c1.7,0,2.28.29,2.31,2.16,0,2.07-.93,2.07-2.46,2.07-13,0-26,0-39-.07-1.72,0-2.3.31-2.27,2.18q.2,11.83,0,23.67c0,1.92.62,2.15,2.28,2.14,12.12-.07,24.24,0,36.36-.07,1.6,0,2.38.13,2.35,2.11s-.6,2.18-2.32,2.17c-12.12-.07-24.24,0-36.35-.09-1.93,0-2.33.55-2.31,2.37.1,8.76.14,17.53,0,26.3,0,2.23.68,2.54,2.66,2.53,13.08-.09,26.15,0,39.23-.07,1.38,0,2.36-.09,2.34,1.9s-.58,2.22-2.32,2.22q-22.12-.1-44.25,0c-1.87,0-2.21-.57-2.2-2.3C662.34,478.48,662.3,467.32,662.3,456.16Z" transform="translate(-91.15 -214.23)"/><path class="cls-10" d="M384.3,306.17a7.63,7.63,0,0,1-3.41.51,5.1,5.1,0,0,0-3.59-.66c-3.59.39-7.13,1.24-10.73,1.41.31.32,1.07.1,1.21.78a128.4,128.4,0,0,1-28,.12c-1.26-.13-2.52-.22-3.79-.33-4.43-4.77-6-10.64-6.74-16.92-.95-8.09-1.48-16.24-2.82-24.3a18.9,18.9,0,0,1-.5-5.63c.37-.73.15-2,1.29-2s1.23,1.25,1.55,2.11c2.91,7.91,5.6,15.93,10,23.18,3.33,5.53,7.19,10.8,13,14,4.71,2.62,9.94,3.39,15.37,3.48,8.84.15,17.13-2.08,25.33-5,2.17-.78,3.9-2.38,6-3.19q4.86,3.54,9.7,7.1c0,.45-.13.81-.62.93l-1.31.06c-.86-.28-1.79-.82-2.29.52a3.15,3.15,0,0,1-2,.46c-2.75-1.06-5.3-.27-7.77.92a5.47,5.47,0,0,1-3.64.72c-2.31-.48-4.34.58-6.44,1.26-.3.09-.42.28-.13.16C384.06,305.84,384.21,306,384.3,306.17Z" transform="translate(-91.15 -214.23)"/><path class="cls-5" d="M433.58,420.6c-6,16-11.94,31.84-17.85,47.65-2.72,7.28-5.52,14.54-8.08,21.87-.61,1.78-1.61,1.89-3,1.77s-2.82.54-3.61-1.62c-8.48-23.08-17.09-46.11-25.65-69.15a2.22,2.22,0,0,1-.06-.46,1.36,1.36,0,0,1,.39-.18c4.21-.13,4.14-.1,5.57,3.85q10.56,29.18,21.21,58.33c.61,1.69,1.21,3.38,1.92,5.37,7.87-21.55,15.6-42.69,23.29-63.84C429.13,420.25,429.07,420.23,433.58,420.6Z" transform="translate(-91.15 -214.23)"/><path class="cls-5" d="M514,420.65c3-.75,5,0,6.82,2.8,7.61,11.55,15.53,22.9,23.43,34.47a30.59,30.59,0,0,0,3.71-4.91c6.65-9.71,13.36-19.39,19.87-29.2,1.78-2.67,3.68-4.23,7.09-3.12-1.82,3.53-4.43,6.63-6.69,9.94-6.68,9.79-13.49,19.49-20.29,29.19a7.23,7.23,0,0,0-1.38,4.42c.08,8.53,0,17.06.1,25.59,0,2-.79,2.05-2.35,2.13-1.78.08-2.25-.4-2.22-2.21.11-8.37,0-16.74.09-25.11a7.81,7.81,0,0,0-1.53-4.82q-13.15-19.05-26.22-38.14C514.19,421.38,513.75,421.15,514,420.65Z" transform="translate(-91.15 -214.23)"/><path class="cls-5" d="M888.73,303.3c4.86,0,9.71,0,14.57,0,1.45,0,2.18.2,2,1.89-.18,2.13.69,4.93-.37,6.24s-4,.42-6.14.43c-8.28.05-16.56,0-24.84.06-1.66,0-2.48-.21-2.27-2.14s-.66-4.8.37-6c1.21-1.39,4-.4,6.15-.44C881.73,303.24,885.23,303.3,888.73,303.3Z" transform="translate(-91.15 -214.23)"/><path class="cls-11" d="M398.46,293.75c-3,3.25-7.07,4.39-11.06,5.61a67.05,67.05,0,0,1-15.75,3.24c-7.39.44-14.92,0-21.37-4.23a29.64,29.64,0,0,1-7.87-7.5A75.32,75.32,0,0,1,331,268.29c-.88-3-2.76-5.66-3.25-8.83-1.26.15-1.1,1.3-1.76,1.69l-.48-2.85c1.29-1,.78-1.93-.06-2.87a33.89,33.89,0,0,1-1-8.51c.05-.67.11-1.35.17-2l.38-.07c1.11,3.85,2.19,7.7,3.33,11.54,3.11,10.46,6.85,20.67,12.65,30,4.08,6.53,9.34,11.92,17.16,13.85,6.46,1.59,13,1.28,19.53.11a81.18,81.18,0,0,0,16.13-4.91,37.41,37.41,0,0,0,4-2.19C398,293.24,398.37,293.32,398.46,293.75Z" transform="translate(-91.15 -214.23)"/><path class="cls-5" d="M577,320c-5.82,0-11.64,0-17.45,0-3.14,0-3.14,0-3.14,3.05,0,21.52,0,43,0,64.55,0,2.34-.66,2.92-2.93,2.88-7.41-.14-14.83-.16-22.24,0-2.44.06-3-.61-3-3q.12-61.32.06-122.65,0-21.63.05-43.27c-.94.51-.56,1.41-.56,2.14q0,82.34-.06,164.66c0,2,.55,2.59,2.55,2.57,7.89-.11,15.78-.14,23.66,0,2.43,0,3.07-.6,3.06-3.05-.1-21.58,0-43.17-.11-64.76,0-2.14.58-2.69,2.67-2.65,6.61.14,13.23.06,19.84.06C578.73,319.6,577.77,320,577,320Z" transform="translate(-91.15 -214.23)"/><path class="cls-10" d="M325.4,255.43c1.42,0,1.58,1.25,1.65,2.16.09,1.11-1,.55-1.59.71Z" transform="translate(-91.15 -214.23)"/><path class="cls-6" d="M506.69,360.65a25.74,25.74,0,0,1-.94-8A28.39,28.39,0,0,1,506.69,360.65Z" transform="translate(-91.15 -214.23)"/><path class="cls-12" d="M407.54,301.78l.62-.93c3.23-3.47,7-4.56,11.56-2.9l1.15.9c3.78,3.08,4.46,7,3,11.43l-.53.75c-2.85,4.14-6.78,5-11.39,3.73l-1.83-1C406.35,310.36,405.62,306.36,407.54,301.78Z" transform="translate(-91.15 -214.23)"/><path class="cls-11" d="M384.3,306.17l-1.43-.16c2.81-1.8,5.46-2.87,8.53-2a1.93,1.93,0,0,0,1.92-.49c2.05-1.58,4.54-1.66,7-1.87a1.69,1.69,0,0,1,1.65,1.17A121.26,121.26,0,0,1,384.3,306.17Z" transform="translate(-91.15 -214.23)"/><path class="cls-11" d="M367.78,308.21c-.9-.6-2.91.46-2.78-.75s2.15-.32,3.19-.62c3.14-.89,6.39-.86,9.55-1.48,1.27-.25,2.8-.77,3.15,1.32A79,79,0,0,1,367.78,308.21Z" transform="translate(-91.15 -214.23)"/><path class="cls-11" d="M403.94,302.36c-.36-.08-.9,0-1.06-.26-.31-.45.23-.65.54-.76,1-.36,2.16-1.26,2.81.5A4.44,4.44,0,0,1,403.94,302.36Z" transform="translate(-91.15 -214.23)"/><path class="cls-13" d="M415.5,308.57c-1.34-.16-2.42-.92-2.42-2.2a2.4,2.4,0,0,1,2.54-2.59,2.36,2.36,0,0,1,2.41,2.47C418.07,307.67,417,308.43,415.5,308.57Z" transform="translate(-91.15 -214.23)"/></g></g></svg>