<svg id="Layer_1" data-name="Layer 1" xmlns="http://www.w3.org/2000/svg" xmlns:xlink="http://www.w3.org/1999/xlink" viewBox="0 0 665.19 665.26"><defs><style>.cls-1{fill:none;}.cls-2{clip-path:url(#clip-path);}.cls-3{fill:#d84d42;}.cls-4{fill:#c5423f;}.cls-5{fill:#3bb5a9;}.cls-6{clip-path:url(#clip-path-2);}.cls-7{fill:#facb55;}.cls-8{fill:#f196a2;}.cls-9{fill:#fefefe;}</style><clipPath id="clip-path" transform="translate(-13.06 -22.17)"><polygon class="cls-1" points="-85 -10 875 -10 875 710 -10.26 700 -85 -10"/></clipPath><clipPath id="clip-path-2" transform="translate(-13.06 -22.17)"><path class="cls-1" d="M-85-10H634.58a1,1,0,0,1,1,.93L710.26,700H-10.26Z"/></clipPath></defs><g class="cls-2"><path class="cls-3" d="M312.17,415.18c11.47,20.82,14.18,51.16,18.77,75.27C357.23,605.68,266.63,646.36,173,670.29c-4.48,1.14-9.08,2.07-13.2,4.52-1.52.9-45.6,12.62-45.6,12.62" transform="translate(-13.06 -22.17)"/><path class="cls-4" d="M114.22,687.43c-.21-2,10.46-3.51,11.54-3.75,4.7-1,9.43-2.18,14-3.54s9.29-2.22,13.81-3.74c1.88-.63,4.11-.39,5.63-1.29,4.13-2.45,8.77-3.21,13.21-4.52,145.75-42.78,201.44-100,134.34-250-21.8,23.83,22.09-36.6,26.9-41.05,3.94-5.77-6.18-20.54,1.35,4.1,7.7,25.21,15,58.81,19.34,83.79C363,523.88,376,586.46,360,641.93c-21.74,18.11-55.1,22.69-82.42,26.24-12.45,1.24-24.91,2.4-37.3,4.28h-.12" transform="translate(-13.06 -22.17)"/><path class="cls-5" d="M404.62,276.19" transform="translate(-13.06 -22.17)"/><path class="cls-5" d="M453.2,207.69c59.66,47.75,123,92.1,179.26,143.52-84.66-8.22-174.83,5.48-259,23.9-5.94,3.19,3.4-13,.56-19.92.48-9.69-8.46-16.06-12.52-23.27,6.62-3.3,9.8-15.17,16-21" transform="translate(-13.06 -22.17)"/><path class="cls-3" d="M403.71,403.06c10.61-7.06,25.59-13.71,37.59-17.72C606,330.23,646.84,461.78,677.84,593.59" transform="translate(-13.06 -22.17)"/><path class="cls-4" d="M678.24,592.14c.44,10.24-11.45-34-10.24-30-42.17-128.43-64.88-230-245.41-165.55-14.79,5.28-12.21,14-29.82-.9-8.66-7.32-34.82-19.8-24.35-22.46,80-20.36,186.26-39.7,261.61-24.48,33.5,30.37,35.92,91.11,39.53,133.91" transform="translate(-13.06 -22.17)"/><g class="cls-6"><path class="cls-7" d="M360.91,643.67c-6.26,6-.44-14.19-1.12-17a550,550,0,0,0,.52-82.09c-2.79-52.81-14-109.81-25.32-161-2-9.16,17.63,7.72,20.37,4.71,7-2.29,13.72-4.69,18.11-10.72.72-1.41,3.1-6.56,4.19-3.09,30.17,24.27,68.71,54.62,100.44,78.26,4.73,5.61,25.36,15.26,23.19,20" transform="translate(-13.06 -22.17)"/><path class="cls-5" d="M241.88,513C182.36,465,117.64,417.88,61.58,366.29c84.63,8.48,176.35-6.94,260.61-25.09,6-3.17-4.94,15-2.13,21.93-.51,9.69,10,17.07,14.08,24.3" transform="translate(-13.06 -22.17)"/><path class="cls-8" d="M194.42,248c3-3.59,7.25-11.45,11.19-16,12.29-14.32,24.42-29.19,36-44.32,33.93-38.87,62.58-84.09,99.12-119.73-8.78,87.58,1.16,180.48,25,264.58-16.39-8.63-35.58-6.32-45.86,8.3,1.44-6.06,4.39-3.63-5.7-10.44-64.85-46.76-54.68-34.9-119.76-82.35" transform="translate(-13.06 -22.17)"/><path class="cls-8" d="M464.27,205.85c-.18,0-.29,0-.32-.23A.23.23,0,0,1,464.27,205.85Z" transform="translate(-13.06 -22.17)"/><path class="cls-7" d="M358,646.06c-.07-.19-.22-.34.07-.43A.7.7,0,0,1,358,646.06Z" transform="translate(-13.06 -22.17)"/><path class="cls-3" d="M241.91,279.17" transform="translate(-13.06 -22.17)"/><path class="cls-3" d="M108.48,185.63" transform="translate(-13.06 -22.17)"/><path class="cls-3" d="M287,311.28c-10.63,7-25.63,13.63-37.65,17.61C84.46,383.48,44.05,251.8,13.47,119.89" transform="translate(-13.06 -22.17)"/><path class="cls-4" d="M13.07,121.34c-.41-10.25,11.34,34.06,10.14,30C65,279.9,87.36,381.56,268.1,317.67c14.8-5.23,12.25-13.95,29.81,1,8.63,7.35,34.75,19.91,24.28,22.54C242.13,361.31,117,417,60.5,364.85,27.07,334,29.92,274.91,24.26,230.69" transform="translate(-13.06 -22.17)"/><path class="cls-4" d="M584.82,22.17c.21,2-10.46,3.52-11.54,3.75-4.7,1-9.43,2.19-14,3.55s-9.29,2.23-13.8,3.76c-1.88.63-4.12.39-5.63,1.29-4.13,2.46-8.77,3.22-13.21,4.53C380.94,82,325.29,139.26,392.52,289.22c21.78-23.85-22.06,36.61-26.87,41.07-3.93,5.77,6.2,20.53-1.35-4.1-7.73-25.21-15.05-58.8-19.41-83.77-8.73-56.5-21.78-119.07-5.77-174.55,21.72-18.13,55.08-22.74,82.39-26.31,12.45-1.25,24.91-2.42,37.3-4.31h.12" transform="translate(-13.06 -22.17)"/><path class="cls-4" d="M514.14,30.85c8.63-1.46,17.34-2,26-3.28,5.88-.89,11.89-1,17.79-1.8,4.62-.67,9.18-1.68,13.89-1.46a1,1,0,0,0,.61-.16" transform="translate(-13.06 -22.17)"/><path class="cls-9" d="M377.5,372.72c-9.63,14.16-27.55,20.37-44.08,13.16a1.38,1.38,0,0,0-1.65-1v0c-21.36-11.63-20.06-47,2.69-56.57C362.26,314.47,391.09,345.78,377.5,372.72Zm-39.1-15.36c-.15,13.25,20.4,12.71,20.61-.24C358.71,344.69,337.87,344.06,338.4,357.36Z" transform="translate(-13.06 -22.17)"/><path class="cls-3" d="M412.15,267.8l-.11-.14.1.14" transform="translate(-13.06 -22.17)"/><path class="cls-3" d="M393.18,293.1c-11.49-20.81-20.3-49.67-24.92-73.78-26.38-115.21,64.18-156,157.77-180,4.48-1.14,9.08-2.07,13.2-4.52,1.52-.91,45.59-12.66,45.59-12.66" transform="translate(-13.06 -22.17)"/><path class="cls-4" d="M542.71,374.27" transform="translate(-13.06 -22.17)"/><path class="cls-4" d="M633.45,445.85" transform="translate(-13.06 -22.17)"/><path class="cls-4" d="M644.62,470.2" transform="translate(-13.06 -22.17)"/><path class="cls-4" d="M659.65,507.09" transform="translate(-13.06 -22.17)"/><path class="cls-4" d="M412.69,265.82" transform="translate(-13.06 -22.17)"/><path class="cls-3" d="M574.43,23.91l-.68.45Z" transform="translate(-13.06 -22.17)"/><path class="cls-8" d="M338.4,357.36c-.53-13.3,20.31-12.67,20.61-.24C358.8,370.07,338.25,370.61,338.4,357.36Z" transform="translate(-13.06 -22.17)"/><path class="cls-7" d="M333.42,385.88a1.56,1.56,0,0,1-1.65-1A1.38,1.38,0,0,1,333.42,385.88Z" transform="translate(-13.06 -22.17)"/><path class="cls-7" d="M331.23,384.36l-.94-.46A1,1,0,0,1,331.23,384.36Z" transform="translate(-13.06 -22.17)"/><path class="cls-7" d="M331.78,384.88l-.51-.49Z" transform="translate(-13.06 -22.17)"/><path class="cls-8" d="M223.75,531.46l.11.09S223.77,531.41,223.75,531.46Z" transform="translate(-13.06 -22.17)"/></g></g></svg>