<svg id="Layer_1" data-name="Layer 1" xmlns="http://www.w3.org/2000/svg" xmlns:xlink="http://www.w3.org/1999/xlink" viewBox="0 0 682.91 704.88"><defs><style>.cls-1{fill:none;}.cls-2{fill:#d84d42;}.cls-3{fill:#c5423f;}.cls-4{fill:#3bb5a9;}.cls-5{clip-path:url(#clip-path);}.cls-6{fill:#facb55;}.cls-7{fill:#f196a2;}.cls-8{fill:#fefefe;}</style><clipPath id="clip-path" transform="translate(-15.67 -5.66)"><path class="cls-1" d="M-85-27.94H653.74a1,1,0,0,1,1,1l76.67,751.26H-8.27Z"/></clipPath></defs><path class="cls-2" d="M322.75,422.08c11.77,22.06,14.56,54.21,19.27,79.75C369,623.92,276,667,179.87,692.38c-4.6,1.2-9.32,2.19-13.55,4.78-1.56,1-46.81,13.37-46.81,13.37" transform="translate(-15.67 -5.66)"/><path class="cls-3" d="M119.53,710.51c-.22-2.12,10.73-3.72,11.84-4,4.83-1.06,9.68-2.31,14.38-3.75s9.53-2.35,14.17-4c1.93-.67,4.22-.42,5.78-1.37,4.24-2.6,9-3.4,13.57-4.79C328.9,647.35,386.07,586.72,317.18,427.8,294.8,453,339.86,389,344.8,384.3c4-6.11-6.34-21.76,1.39,4.35,7.9,26.71,15.4,62.31,19.85,88.77,8.89,59.81,22.24,126.12,5.81,184.89-22.32,19.18-56.57,24-84.61,27.8-12.79,1.31-25.58,2.54-38.3,4.53h-.22" transform="translate(-15.67 -5.66)"/><path class="cls-4" d="M417.66,274.82" transform="translate(-15.67 -5.66)"/><path class="cls-4" d="M467.53,202.25c61.25,50.59,126.28,97.58,184,152.06-86.92-8.71-179.49,5.8-265.9,25.32-6.1,3.38,3.49-13.77.58-21.1.49-10.27-8.69-17-12.86-24.66,6.8-3.5,10.06-16.07,16.43-22.25" transform="translate(-15.67 -5.66)"/><path class="cls-2" d="M416.73,409.24c10.89-7.48,26.27-14.52,38.59-18.77,169.08-58.39,211,81,242.84,220.64" transform="translate(-15.67 -5.66)"/><path class="cls-3" d="M698.57,609.57c.45,10.85-11.76-36-10.52-31.78-43.29-136.07-66.6-243.69-251.94-175.4-15.19,5.59-12.54,14.83-30.62-.95-8.89-7.76-35.74-21-25-23.8,82.13-21.57,191.22-42.06,268.57-25.94,34.4,32.18,36.88,96.53,40.59,141.88" transform="translate(-15.67 -5.66)"/><g class="cls-5"><path class="cls-6" d="M372.79,664.17c-6.43,6.36-.46-15-1.15-18a602.66,602.66,0,0,0,.53-87c-2.86-55.95-14.37-116.34-26-170.58-2.06-9.7,18.1,8.18,20.91,5,7.18-2.42,14.08-5,18.59-11.35.74-1.5,3.18-6.95,4.3-3.28,31,25.72,70.54,57.87,103.12,82.92,4.85,5.94,26,16.17,23.8,21.19" transform="translate(-15.67 -5.66)"/><path class="cls-4" d="M250.59,525.73C189.48,474.87,123,425,65.48,370.29c86.89,9,181.05-7.36,267.55-26.59,6.16-3.36-5.07,15.9-2.18,23.24-.53,10.26,10.26,18.08,14.45,25.74" transform="translate(-15.67 -5.66)"/><path class="cls-7" d="M201.86,245c3.08-3.81,7.44-12.13,11.49-17,12.62-15.17,25.07-30.92,37-46.95C285.14,139.86,314.56,92,352.07,54.19c-9,92.79,1.19,191.22,25.66,280.33-16.82-9.15-36.52-6.7-47.08,8.79,1.48-6.42,4.51-3.85-5.85-11.06-66.58-49.54-56.14-37-123-87.25" transform="translate(-15.67 -5.66)"/><path class="cls-7" d="M478.9,200.3c-.19,0-.3,0-.33-.24a.23.23,0,0,1,.31.12A.25.25,0,0,1,478.9,200.3Z" transform="translate(-15.67 -5.66)"/><path class="cls-6" d="M369.8,666.7c-.07-.2-.23-.36.07-.45A.78.78,0,0,1,369.8,666.7Z" transform="translate(-15.67 -5.66)"/><path class="cls-2" d="M250.62,278" transform="translate(-15.67 -5.66)"/><path class="cls-2" d="M113.63,178.88" transform="translate(-15.67 -5.66)"/><path class="cls-2" d="M296.91,312c-10.92,7.42-26.32,14.44-38.66,18.66C89,388.5,47.49,249,16.09,109.22" transform="translate(-15.67 -5.66)"/><path class="cls-3" d="M15.68,110.76c-.42-10.86,11.64,36.09,10.41,31.79C69,278.76,92,386.46,277.5,318.77c15.2-5.54,12.58-14.78,30.61,1.06,8.86,7.79,35.67,21.1,24.92,23.88C250.84,365,122.38,424,64.38,368.76,30.05,336.07,33,273.47,27.17,226.62" transform="translate(-15.67 -5.66)"/><path class="cls-3" d="M602.66,5.88c.21,2.12-10.74,3.73-11.85,4-4.82,1.06-9.68,2.32-14.37,3.76s-9.54,2.37-14.17,4c-1.93.67-4.23.41-5.78,1.36-4.24,2.61-9,3.42-13.56,4.8C393.35,69.27,336.22,129.94,405.24,288.82c22.36-25.27-22.65,38.79-27.59,43.51-4,6.12,6.37,21.76-1.38-4.34-7.94-26.71-15.45-62.3-19.93-88.75-9-59.87-22.36-126.16-5.92-184.94C372.71,35.09,407,30.21,435,26.42c12.78-1.32,25.57-2.56,38.29-4.56h.26" transform="translate(-15.67 -5.66)"/><path class="cls-3" d="M530.1,14.89c8.86-1.55,17.8-2.12,26.69-3.48,6-.94,12.21-1.06,18.26-1.91,4.75-.71,9.43-1.78,14.26-1.54a1.09,1.09,0,0,0,.63-.17" transform="translate(-15.67 -5.66)"/><path class="cls-8" d="M389.82,377.1c-9.89,15-28.29,21.58-45.26,13.94a1.41,1.41,0,0,0-1.69-1.06h0c-21.93-12.32-20.59-49.79,2.76-59.93C374.17,315.38,403.77,348.56,389.82,377.1Zm-40.14-16.28c-.16,14,20.94,13.47,21.16-.25-.31-13.17-21.71-13.84-21.16.25Z" transform="translate(-15.67 -5.66)"/><path class="cls-2" d="M425.39,265.94l-.11-.15.1.15" transform="translate(-15.67 -5.66)"/><path class="cls-2" d="M405.92,292.74c-11.8-22.05-20.85-52.63-25.59-78.17C353.25,92.5,446.22,49.29,542.3,23.86c4.6-1.21,9.33-2.19,13.56-4.79,1.56-1,46.8-13.41,46.8-13.41" transform="translate(-15.67 -5.66)"/><path class="cls-3" d="M559.43,378.74" transform="translate(-15.67 -5.66)"/><path class="cls-3" d="M652.58,454.58" transform="translate(-15.67 -5.66)"/><path class="cls-3" d="M664.05,480.38" transform="translate(-15.67 -5.66)"/><path class="cls-3" d="M679.48,519.46" transform="translate(-15.67 -5.66)"/><path class="cls-3" d="M425.94,263.84" transform="translate(-15.67 -5.66)"/><path class="cls-2" d="M592,7.53l-.7.48Z" transform="translate(-15.67 -5.66)"/><path class="cls-7" d="M349.68,360.82c-.55-14.09,20.85-13.42,21.16-.25C370.62,374.29,349.52,374.86,349.68,360.82Z" transform="translate(-15.67 -5.66)"/><path class="cls-6" d="M344.56,391a1.59,1.59,0,0,1-1.69-1.06A1.41,1.41,0,0,1,344.56,391Z" transform="translate(-15.67 -5.66)"/><path class="cls-6" d="M342.32,389.43l-1-.49A1,1,0,0,1,342.32,389.43Z" transform="translate(-15.67 -5.66)"/><path class="cls-6" d="M342.88,390l-.52-.52Z" transform="translate(-15.67 -5.66)"/><path class="cls-7" d="M232,545.28l.12.1S232,545.23,232,545.28Z" transform="translate(-15.67 -5.66)"/></g></svg>